<?xml version="1.0" encoding="utf-8"?>
<!-- Generator: Adobe Illustrator 23.0.4, SVG Export Plug-In . SVG Version: 6.00 Build 0)  -->
<svg version="1.1" id="Layer_1" xmlns="http://www.w3.org/2000/svg" xmlns:xlink="http://www.w3.org/1999/xlink" x="0px" y="0px"
	 viewBox="0 0 606.9 147" style="enable-background:new 0 0 606.9 147;" xml:space="preserve">
<radialGradient id="SVGID_1_" cx="141.9797" cy="156.0904" r="70.0576" fx="129.806" fy="169.162" gradientTransform="matrix(1.0387 0 0 1.0387 -75.4694 -88.6008)" gradientUnits="userSpaceOnUse">
	<stop  offset="0.2805" style="stop-color:#00BAFF"/>
	<stop  offset="0.9778" style="stop-color:#007AD7"/>
</radialGradient>
<path style="fill:url(#SVGID_1_);" d="M143.8,51.4c-1.4-5.5-8-8.4-20.3-9c-4.5-7.2-10.5-13.5-17.8-18.3c-8.4-5.6-17.9-8.8-27.7-9.6
	C73.3,4.2,68.4-0.6,63,0.1c-6,0.7-9.4,8.1-11.3,18.3c-8.8,3.4-16.6,8.8-22.8,15.9C18,31.1,11.2,31.8,8.2,36.3
	c-3.2,4.9-0.7,12.1,7.8,22c-1,3.8-1.6,7.7-1.9,11.6C3.4,76.2-1.1,82,0.2,87.5c1.4,5.6,8.6,8.1,18.4,8.8c4.5,10.7,12,19.9,21.9,26.4
	c7.6,5,16.1,8.2,24.9,9.3c4,8.9,8.8,15,14.3,15c0.3,0,0.6,0,0.9-0.1c5.4-0.6,9-6.4,11.2-17.5c6.4-2.2,12.3-5.3,17.5-9.4
	c5,1.5,9.2,2.3,12.6,2.3c4.5,0,7.6-1.3,9.4-4c2.9-4.3,1.2-10.5-5.2-18.8c4.8-9.6,7-20.6,5.9-31.9C141.2,61.9,145.1,56.5,143.8,51.4z
	 M123.9,63.1c0.1,0.3,0.1,0.6,0.2,0.9c-0.8,0.5-1.7,0.9-2.7,1.4c-4.5,2.3-9.6,4.6-15.2,6.8c-2.4-2.1-6-2.6-8.8-0.9
	c-2,1.2-3.2,3.1-3.6,5.3c-5.9,1.9-12.2,3.7-18.7,5.4c-1.6,0.4-3.2,0.8-4.8,1.2c-1.1-2.3-2.7-4.2-4.8-5.6c-2-1.4-4.2-2.2-6.5-2.4
	c-0.8-6.7-1.4-13.3-1.7-19.7c0,0,0,0,0,0c3.6-2.1,4.7-6.7,2.6-10.3c-0.7-1.2-1.8-2.2-2.9-2.8c0-5.9,0.3-11.4,0.9-16.4
	c0.1-0.7,0.2-1.4,0.3-2.1c1.5-0.4,3-0.8,4.6-1.2c3.5-0.7,7-1.1,10.5-1.1c10.1,0,19.9,2.9,28.5,8.6C113.3,37.8,121.2,49.5,123.9,63.1
	z M70.5,125.3c-0.3-0.7-0.5-1.4-0.8-2.2c-2.2-6.1-4.3-13.3-6-21.2c1.3-0.6,2.4-1.4,3.5-2.3c12,7.5,23.7,13.5,33.9,17.6
	c-5.2,3.3-11.1,5.8-17.5,7.1C79.2,125.1,74.8,125.5,70.5,125.3z M26.5,89.3c-1,0-1.9,0-2.8,0c-0.6-1.8-1.1-3.6-1.4-5.5
	C21,77.5,20.9,71,22,64.8c6.2,6.2,13.8,12.8,22.4,19.3c-0.5,1.2-0.8,2.6-0.9,3.9C37.4,88.8,31.7,89.2,26.5,89.3z M56.3,82.4
	c1.8-0.3,3.6,0,5.1,1.1c1.5,1,2.5,2.6,2.9,4.4c0.7,3.7-1.8,7.3-5.5,8c-1.8,0.3-3.6-0.1-5.1-1.1c-1.5-1-2.5-2.6-2.9-4.4
	C50.2,86.6,52.6,83,56.3,82.4z M63.9,7.3C63.9,7.3,63.9,7.3,63.9,7.3c0.6,0,2.9,1.3,6,7.1c-2.9,0.2-5.7,0.5-8.6,1.1
	c-0.6,0.1-1.1,0.3-1.7,0.4C61.3,9.2,63.3,7.4,63.9,7.3z M50.5,26.8c-0.5,5-0.7,10.3-0.7,15.6c0,0-0.1,0-0.1,0.1
	c-3.6,2.1-4.7,6.7-2.6,10.3c0.8,1.3,1.8,2.2,3,2.8c0.4,7.4,1,14.5,1.7,20.3c0,0.1,0,0.2,0,0.3c-1.2,0.5-2.3,1.2-3.2,2
	C39.1,70.9,30.8,63.7,24.5,57c-0.1-0.2-0.3-0.3-0.4-0.4c1.4-4.1,3.3-8,5.8-11.7C35.1,37,42.2,30.8,50.5,26.8z M14.2,40.3
	c0.3-0.5,2.8-1.5,9.8,0.2c-0.1,0.1-0.2,0.2-0.3,0.4c-2,3-3.6,6.1-5,9.3C14,43.8,13.9,40.9,14.2,40.3z M7.3,85.8
	c-0.1-0.5,0.9-3.1,6.9-7.3c0.2,2.3,0.5,4.6,1,6.9c0.2,1.2,0.5,2.4,0.8,3.5C9.4,88,7.4,86.3,7.3,85.8z M44.6,116.7
	c-7.8-5.1-13.8-12.1-17.9-20.2c5.7-0.1,11.9-0.6,18.1-1.4c1.1,2.3,2.7,4.2,4.8,5.7c2.1,1.4,4.5,2.3,6.9,2.4c1.6,7.2,3.5,14.5,5.8,21
	C56.1,122.9,50.1,120.4,44.6,116.7z M79.8,139.8c-0.6,0.1-2.9-1.2-6.1-7.2c3.4,0,6.8-0.4,10.2-1C82.3,138,80.4,139.7,79.8,139.8z
	 M125.2,114.4c-0.3,0.5-2.8,1.4-9.4-0.1c2.3-2.4,4.4-5,6.3-7.8C125.5,111.5,125.6,113.9,125.2,114.4z M107.8,112
	c-0.6-0.2-1.2-0.4-1.9-0.7c-10.2-3.8-22.4-10-34.9-17.8c0.3-1,0.6-2.1,0.6-3.3c1.8-0.4,3.6-0.8,5.2-1.3c6.7-1.7,13.2-3.6,19.4-5.6
	c2.4,2.1,5.9,2.5,8.8,0.8c2-1.2,3.2-3.1,3.5-5.2c6-2.3,11.4-4.7,16.2-7.2c0.1,0,0.1-0.1,0.2-0.1C125.5,87.3,118.9,101.9,107.8,112z
	 M130.7,59.9c-0.8-3.4-1.9-6.7-3.2-9.8c7.1,0.8,9.1,2.6,9.3,3.1C136.8,53.7,135.9,56.1,130.7,59.9z"/>
<g>
	<path style="fill:#007AD7;" d="M254.9,36.2c6.7,5.7,10.1,13.5,10.1,23.4c0,9.9-3.4,17.7-10.1,23.4c-6.7,5.7-16,8.5-27.7,8.5h-22.4
		v27.7h-13V27.7h35.4C239,27.7,248.2,30.6,254.9,36.2z M245.6,74.9c4.3-3.5,6.5-8.6,6.5-15.2c0-6.6-2.2-11.7-6.5-15.2
		c-4.3-3.5-10.6-5.3-18.8-5.3h-22v41.1h22C235,80.2,241.3,78.4,245.6,74.9z"/>
	<path style="fill:#007AD7;" d="M338.2,88.8h-55.7c0.8,6.1,3.4,11,8,14.7c4.5,3.7,10.2,5.6,16.9,5.6c8.2,0,14.8-2.8,19.8-8.4
		l6.9,8.1c-3.1,3.7-7,6.5-11.6,8.4c-4.6,1.9-9.8,2.9-15.5,2.9c-7.3,0-13.7-1.5-19.3-4.5c-5.6-3-10-7.2-13-12.6
		c-3.1-5.4-4.6-11.5-4.6-18.3c0-6.7,1.5-12.8,4.5-18.2c3-5.4,7.1-9.6,12.3-12.6c5.2-3,11.1-4.5,17.7-4.5c6.6,0,12.4,1.5,17.5,4.5
		c5.1,3,9.2,7.2,12,12.6c2.9,5.4,4.3,11.6,4.3,18.6C338.5,86,338.4,87.3,338.2,88.8z M289.6,65.4c-4,3.7-6.4,8.5-7.1,14.4h44
		c-0.7-5.8-3-10.6-7.1-14.3c-4-3.7-9-5.6-15-5.6S293.6,61.8,289.6,65.4z"/>
	<path style="fill:#007AD7;" d="M403.4,53.8c5.3,3,9.4,7.1,12.4,12.4c3,5.3,4.5,11.5,4.5,18.4c0,7-1.5,13.1-4.5,18.5
		c-3,5.4-7.1,9.5-12.4,12.5c-5.3,3-11.2,4.4-17.9,4.4c-4.9,0-9.4-1-13.5-2.9c-4.1-1.9-7.6-4.7-10.4-8.4v35.8h-12.4V50h11.9v11
		c2.8-3.8,6.3-6.7,10.5-8.7c4.2-2,8.9-2.9,14-2.9C392.2,49.3,398.2,50.8,403.4,53.8z M396.4,106c3.5-2,6.3-4.9,8.3-8.6
		c2-3.7,3-8,3-12.8c0-4.8-1-9-3-12.8c-2-3.7-4.8-6.6-8.3-8.6c-3.5-2-7.4-3-11.9-3c-4.3,0-8.2,1-11.7,3.1c-3.5,2.1-6.3,4.9-8.3,8.6
		c-2,3.7-3,7.9-3,12.7c0,4.8,1,9,3,12.8c2,3.7,4.7,6.6,8.3,8.6c3.5,2.1,7.5,3.1,11.8,3.1C388.9,109.1,392.9,108.1,396.4,106z"/>
	<path style="fill:#007AD7;" d="M484.9,53.8c5.3,3,9.4,7.1,12.4,12.4c3,5.3,4.5,11.5,4.5,18.4c0,7-1.5,13.1-4.5,18.5
		c-3,5.4-7.1,9.5-12.4,12.5c-5.3,3-11.2,4.4-17.9,4.4c-4.9,0-9.4-1-13.5-2.9c-4.1-1.9-7.6-4.7-10.4-8.4v35.8h-12.4V50h11.9v11
		c2.8-3.8,6.3-6.7,10.5-8.7c4.2-2,8.9-2.9,14-2.9C473.7,49.3,479.6,50.8,484.9,53.8z M477.8,106c3.5-2,6.3-4.9,8.3-8.6
		c2-3.7,3-8,3-12.8c0-4.8-1-9-3-12.8c-2-3.7-4.8-6.6-8.3-8.6c-3.5-2-7.4-3-11.9-3c-4.3,0-8.2,1-11.7,3.1c-3.5,2.1-6.3,4.9-8.3,8.6
		c-2,3.7-3,7.9-3,12.7c0,4.8,1,9,3,12.8c2,3.7,4.7,6.6,8.3,8.6c3.5,2.1,7.5,3.1,11.8,3.1C470.4,109.1,474.3,108.1,477.8,106z"/>
	<path style="fill:#007AD7;" d="M529.3,115.5c-5.4-3.1-9.7-7.3-12.8-12.6c-3.1-5.4-4.6-11.4-4.6-18.3c0-6.8,1.5-12.9,4.6-18.2
		c3.1-5.4,7.3-9.6,12.8-12.6c5.4-3,11.6-4.5,18.4-4.5c6.8,0,12.9,1.5,18.3,4.5c5.4,3,9.6,7.2,12.7,12.6c3.1,5.4,4.6,11.4,4.6,18.2
		c0,6.8-1.5,12.9-4.6,18.3c-3.1,5.4-7.3,9.6-12.7,12.6c-5.4,3.1-11.5,4.6-18.3,4.6C540.9,120.1,534.8,118.6,529.3,115.5z M559.6,106
		c3.5-2,6.2-4.9,8.2-8.6c2-3.7,3-8,3-12.8c0-4.8-1-9-3-12.8c-2-3.7-4.7-6.6-8.2-8.6c-3.5-2-7.4-3-11.9-3s-8.4,1-11.9,3
		c-3.5,2-6.3,4.9-8.3,8.6c-2,3.7-3,8-3,12.8c0,4.8,1,9,3,12.8c2,3.7,4.8,6.6,8.3,8.6c3.5,2.1,7.4,3.1,11.9,3.1
		S556.1,108.1,559.6,106z"/>
	<path style="fill:#007AD7;" d="M594.4,22.2h12.4v97.1h-12.4V22.2z"/>
</g>
</svg>
